G04*
G04 #@! TF.GenerationSoftware,Altium Limited,Altium Designer,19.0.15 (446)*
G04*
G04 Layer_Color=16711935*
%FSLAX25Y25*%
%MOIN*%
G70*
G01*
G75*
%ADD10C,0.01000*%
%ADD11C,0.00600*%
D10*
X23776Y81000D02*
G03*
X23776Y81000I-8276J0D01*
G01*
X379276Y17500D02*
G03*
X379276Y17500I-8276J0D01*
G01*
X0Y278500D02*
X388500D01*
X0Y0D02*
X388500D01*
Y278500D01*
X0Y0D02*
Y278500D01*
X-34500Y6000D02*
X-32500Y0D01*
X-30500Y6000D01*
X-32500Y278500D02*
X-30500Y272500D01*
X-34500D02*
X-32500Y278500D01*
Y0D02*
Y108559D01*
Y166741D02*
Y278500D01*
X-33500Y0D02*
X-1500D01*
X-33500Y278500D02*
X-1500D01*
X0Y-14500D02*
X6000Y-12500D01*
X0Y-14500D02*
X6000Y-16500D01*
X382500D02*
X388500Y-14500D01*
X382500Y-12500D02*
X388500Y-14500D01*
X0D02*
X163559D01*
X221741D02*
X388500D01*
X0Y-15500D02*
Y-1500D01*
X388500Y-15500D02*
Y-1500D01*
D11*
X-33899Y110159D02*
Y114158D01*
X-32900D01*
X-28901Y110159D01*
X-27901D01*
X-32900Y116157D02*
X-33899Y117157D01*
Y119156D01*
X-32900Y120156D01*
X-28901D01*
X-27901Y119156D01*
Y117157D01*
X-28901Y116157D01*
X-32900D01*
X-26902Y123155D02*
X-27901Y124154D01*
X-28901D01*
Y123155D01*
X-27901D01*
Y124154D01*
X-26902Y123155D01*
X-25902Y122155D01*
X-33899Y128153D02*
Y132152D01*
X-32900D01*
X-28901Y128153D01*
X-27901D01*
Y137150D02*
X-33899D01*
X-30900Y134151D01*
Y138150D01*
X-27901Y148147D02*
X-29901Y146147D01*
X-31900D01*
X-33899Y148147D01*
X-27901Y151146D02*
X-31900D01*
Y152145D01*
X-30900Y153145D01*
X-27901D01*
X-30900D01*
X-31900Y154145D01*
X-30900Y155144D01*
X-27901D01*
Y157144D02*
X-31900D01*
Y158143D01*
X-30900Y159143D01*
X-27901D01*
X-30900D01*
X-31900Y160143D01*
X-30900Y161142D01*
X-27901D01*
Y163142D02*
X-29901Y165141D01*
X-31900D01*
X-33899Y163142D01*
X165159Y-18099D02*
X166159Y-19099D01*
X168158D01*
X169158Y-18099D01*
Y-14100D01*
X168158Y-13101D01*
X166159D01*
X165159Y-14100D01*
Y-15100D01*
X166159Y-16100D01*
X169158D01*
X171157Y-14100D02*
X172157Y-13101D01*
X174156D01*
X175156Y-14100D01*
Y-15100D01*
X174156Y-16100D01*
X175156Y-17099D01*
Y-18099D01*
X174156Y-19099D01*
X172157D01*
X171157Y-18099D01*
Y-17099D01*
X172157Y-16100D01*
X171157Y-15100D01*
Y-14100D01*
X172157Y-16100D02*
X174156D01*
X178155Y-20098D02*
X179154Y-19099D01*
Y-18099D01*
X178155D01*
Y-19099D01*
X179154D01*
X178155Y-20098D01*
X177155Y-21098D01*
X187152Y-13101D02*
X185152Y-14100D01*
X183153Y-16100D01*
Y-18099D01*
X184153Y-19099D01*
X186152D01*
X187152Y-18099D01*
Y-17099D01*
X186152Y-16100D01*
X183153D01*
X189151Y-14100D02*
X190151Y-13101D01*
X192150D01*
X193150Y-14100D01*
Y-15100D01*
X192150Y-16100D01*
X193150Y-17099D01*
Y-18099D01*
X192150Y-19099D01*
X190151D01*
X189151Y-18099D01*
Y-17099D01*
X190151Y-16100D01*
X189151Y-15100D01*
Y-14100D01*
X190151Y-16100D02*
X192150D01*
X203147Y-19099D02*
X201147Y-17099D01*
Y-15100D01*
X203147Y-13101D01*
X206146Y-19099D02*
Y-15100D01*
X207145D01*
X208145Y-16100D01*
Y-19099D01*
Y-16100D01*
X209145Y-15100D01*
X210144Y-16100D01*
Y-19099D01*
X212144D02*
Y-15100D01*
X213143D01*
X214143Y-16100D01*
Y-19099D01*
Y-16100D01*
X215143Y-15100D01*
X216142Y-16100D01*
Y-19099D01*
X218142D02*
X220141Y-17099D01*
Y-15100D01*
X218142Y-13101D01*
M02*
